<svg version="1.2" xmlns="http://www.w3.org/2000/svg" viewBox="0 0 1553 1405" width="1553" height="1405">
	<title>btg</title>
	<style>
		.s0 { fill: #ffffff } 
	</style>
	<path id="Layer" fill-rule="evenodd" class="s0" d="m1552.3 744v192.7c0 127.8-67.1 177.8-197.7 177.8h-99.2c-129.4 181.3-336.9 290.5-561.8 290.5-382.5 0-693.6-315.1-693.6-702.5 0-387.4 311.1-702.5 693.6-702.5 273 0 520.9 162.7 632.8 414.8h-30.6c-109.8-235.4-344.4-386.7-602.2-386.7-367.2 0-665.9 302.5-665.9 674.4 0 371.9 298.7 674.4 665.9 674.4 230.1 0 441.2-119.1 562.8-314.1l0.1 0.1c14.6-24.3 25.6-28.6 49.8-29.1h42.4c70.9 0 101.1-23.1 101.1-93.3v-15c-28.8 23.2-69.3 30.6-109.9 30.6-126.9 0-180.7-60.5-180.7-185.2v-20.2c0-131.5 61.9-189 196.9-189 132.1 0 196.2 55.3 196.2 182.3zm-1148.4-323.5l103.3-16.5v189c29.5-23.1 73-31.3 112.8-31.3 125.4 0 182.9 62.7 182.9 191.2v35.1c0 136.8-61.9 192.1-202.1 192.1-134.9 0-196.9-56.8-196.9-192.8zm200.6 223.4c-73.7 0-98.8 25.4-98.8 100.9v42.5c0 83 25.1 111.4 97.4 111.4 72.2 0 97.3-28.4 97.3-110.6v-31.4c0-84.4-25.1-112.8-95.9-112.8zm374.7 14.2v152.4c0 62.8 18.5 76.9 75.3 76.9h64.1l-16.9 83h-54.6c-124.7 0-170.4-35.1-170.4-153.2v-341.4l102.5-15.7v114.3h146.1l-17 83.7zm471.3 96.4c0-82.2-15.5-110.6-94.4-110.6-80.4 0-94.4 29.1-94.4 109.8v12.7c0 81.5 15.5 109.1 94.4 109.1 70.1 0 94.4-21.7 94.4-91.9z"/>
</svg>